<?xml version="1.0" standalone="no"?>
<!DOCTYPE svg PUBLIC "-//W3C//DTD SVG 20010904//EN"
 "http://www.w3.org/TR/2001/REC-SVG-20010904/DTD/svg10.dtd">
<svg version="1.0" xmlns="http://www.w3.org/2000/svg"
 width="1120.000000pt" height="1120.000000pt" viewBox="0 0 1120.000000 1120.000000"
 preserveAspectRatio="xMidYMid meet">
<metadata>
Created by potrace 1.14, written by Peter Selinger 2001-2017
</metadata>
<g transform="translate(0.000000,1120.000000) scale(0.100000,-0.100000)"
fill="#000000" stroke="none">
<path d="M4940 9329 c-19 -4 -51 -10 -70 -13 -19 -2 -46 -7 -60 -10 -14 -3
-38 -7 -55 -10 -32 -4 -144 -23 -185 -31 -32 -6 -229 -40 -345 -60 -183 -31
-230 -42 -415 -90 -297 -79 -477 -139 -617 -207 -151 -73 -207 -68 786 -68
706 0 891 -3 892 -12 0 -7 2 -22 4 -33 3 -11 7 -45 10 -75 4 -30 8 -66 10 -80
2 -14 7 -46 10 -72 l7 -48 49 5 c84 9 147 15 202 20 117 11 145 14 207 21 98
10 109 11 190 19 41 4 152 15 245 25 133 14 229 18 440 15 277 -4 289 -4 435
-31 47 -9 96 -18 110 -21 62 -11 232 -57 425 -116 116 -36 251 -74 300 -85 89
-21 185 -35 185 -27 0 10 -102 125 -161 182 -116 112 -277 231 -459 341 -247
148 -343 188 -672 277 -32 8 -82 22 -112 30 -30 8 -65 16 -78 19 -12 3 -88 21
-168 41 -80 20 -152 38 -160 40 -8 2 -46 11 -85 20 -38 9 -77 18 -86 20 -9 2
-34 8 -55 14 -47 13 -671 13 -724 0z"/>
<path d="M2460 8710 c-4 -3 -10 -27 -14 -53 -4 -27 -9 -57 -11 -67 -2 -9 -6
-33 -9 -52 -6 -38 -95 -569 -101 -608 -3 -14 -14 -79 -25 -145 -11 -66 -22
-131 -25 -145 -2 -14 -11 -65 -19 -115 -8 -49 -22 -129 -31 -178 -8 -48 -18
-104 -21 -125 -7 -45 -62 -377 -68 -412 -3 -14 -32 -189 -66 -390 -33 -201
-63 -376 -65 -390 -9 -51 -95 -566 -101 -605 -3 -22 -10 -59 -15 -83 -5 -24
-12 -61 -14 -83 -3 -23 -17 -104 -30 -182 -14 -78 -27 -160 -30 -182 -4 -22
-17 -101 -30 -175 -13 -74 -26 -151 -29 -170 -10 -64 -84 -505 -88 -520 -3
-13 96 -15 830 -18 787 -2 832 -1 833 15 1 10 2 36 4 58 1 22 5 94 10 160 4
66 8 147 10 180 13 244 25 408 30 413 7 8 558 3 565 -4 5 -5 11 -47 15 -94 4
-47 8 -87 10 -90 1 -3 6 -41 10 -85 4 -44 9 -91 10 -105 1 -14 6 -56 9 -95 4
-38 9 -79 11 -90 2 -11 7 -58 11 -105 4 -47 8 -92 10 -100 1 -8 3 -25 3 -37
l1 -23 500 0 c393 0 500 3 501 13 0 6 2 21 4 32 2 11 7 40 10 65 3 25 7 56 10
70 2 14 7 43 10 65 3 22 15 103 26 180 11 77 22 151 24 165 5 35 64 438 70
475 3 17 7 48 10 70 4 22 8 51 10 65 3 14 9 57 14 95 6 39 13 86 16 105 23
157 31 221 26 224 -3 1 -140 2 -303 1 -205 -1 -298 2 -299 9 -2 14 -2 8 6 91
3 39 8 77 10 85 2 8 6 33 9 55 7 50 17 114 22 140 13 70 26 144 29 165 2 14 9
50 15 80 6 30 13 71 16 90 19 132 38 210 53 224 10 9 46 17 96 21 44 3 87 8
95 10 8 2 31 7 50 10 68 11 90 17 90 25 0 7 -110 563 -194 985 -5 24 -46 231
-52 260 -2 11 -10 52 -18 90 -8 39 -37 185 -65 325 -28 140 -58 291 -67 335
l-16 80 -1140 0 c-627 0 -1143 -2 -1148 -5z m1207 -1092 c1 -22 20 -163 28
-208 3 -14 7 -47 10 -75 3 -27 8 -63 11 -80 3 -16 7 -43 9 -60 2 -16 6 -46 9
-65 3 -19 8 -53 11 -75 3 -22 14 -102 25 -177 11 -76 23 -159 26 -185 3 -27 7
-55 9 -63 2 -8 6 -33 9 -55 9 -66 25 -188 30 -225 3 -19 15 -100 26 -180 11
-80 23 -161 26 -180 13 -93 24 -170 29 -215 3 -27 8 -62 11 -76 l5 -26 -286 2
c-157 1 -287 4 -289 6 -2 2 7 76 19 164 13 88 26 185 29 216 4 31 8 65 10 75
2 11 7 46 12 79 4 33 8 62 9 65 1 3 5 39 10 80 5 41 9 77 10 80 1 3 5 30 9 60
4 30 9 66 11 80 3 14 14 97 25 185 12 88 23 171 25 185 2 14 6 43 9 65 3 22
14 105 25 185 11 80 23 168 26 195 3 28 8 61 10 75 3 14 7 48 10 75 4 28 9 58
11 68 6 19 40 24 41 5z"/>
<path d="M2180 8393 c-208 -144 -482 -341 -605 -436 -115 -89 -341 -274 -386
-317 -181 -171 -244 -237 -323 -340 -50 -64 -116 -181 -116 -204 0 -3 12 -4
28 -1 15 3 108 18 207 35 99 17 191 32 205 34 14 3 41 7 60 10 35 6 67 11 130
22 19 3 49 8 65 11 17 2 35 6 42 8 17 6 20 -1 27 -63 3 -28 8 -67 11 -85 5
-34 23 -174 40 -304 12 -93 18 -123 25 -123 16 0 212 153 265 207 66 67 134
167 163 238 44 109 52 139 92 341 23 115 44 217 46 227 2 9 6 27 9 40 11 52
16 73 19 92 3 11 14 63 25 115 11 52 23 109 25 125 3 17 10 55 16 85 6 30 13
71 16 90 2 19 6 44 9 55 10 48 16 205 9 204 -5 0 -52 -30 -104 -66z"/>
<path d="M6405 8179 c-59 -7 -120 -36 -154 -72 -48 -52 -57 -109 -59 -368 l-1
-239 99 0 100 0 0 80 0 80 30 0 31 0 -3 88 -3 87 -28 -2 -28 -2 2 65 c2 53 6
68 23 80 26 18 31 18 50 -2 14 -13 16 -50 16 -245 l0 -229 99 0 99 0 -2 263
c-1 251 -2 264 -24 308 -40 82 -133 123 -247 108z"/>
<path d="M8005 8179 c-89 -11 -160 -60 -201 -139 -16 -31 -18 -65 -20 -287
l-3 -253 100 0 99 0 0 228 c0 252 3 266 55 260 25 -2 31 -8 33 -32 3 -28 -15
-50 -43 -51 -6 0 -10 -37 -10 -88 l-1 -88 53 2 c132 6 214 94 207 222 -7 146
-126 245 -269 226z"/>
<path d="M8600 8175 c-93 -19 -176 -75 -225 -151 -45 -71 -57 -109 -57 -190 1
-262 275 -430 509 -312 138 69 220 252 177 396 -6 23 -10 42 -8 42 2 0 -10 22
-26 49 -81 130 -225 195 -370 166z m98 -191 c34 -7 82 -46 101 -81 18 -35 13
-114 -9 -151 -72 -118 -247 -81 -266 57 -11 76 33 151 100 170 41 12 39 12 74
5z"/>
<path d="M6912 8154 c-29 -14 -64 -41 -78 -60 -45 -58 -51 -101 -51 -356 l-1
-238 99 0 98 0 3 234 c2 129 6 237 9 240 4 4 16 8 27 11 42 8 47 -16 49 -234
1 -113 2 -216 2 -229 1 -22 3 -23 99 -20 l97 3 0 220 c1 121 -3 243 -8 270
-22 125 -96 185 -232 185 -46 0 -74 -6 -113 -26z"/>
<path d="M7522 8159 c-125 -62 -162 -198 -92 -347 16 -35 30 -74 30 -87 0 -27
-45 -49 -82 -40 l-25 6 -1 -91 0 -92 31 -13 c91 -38 229 20 279 118 34 68 29
137 -17 235 -35 74 -37 85 -25 107 13 24 26 29 63 26 15 -2 17 8 17 92 0 108
1 107 -83 107 -33 0 -68 -8 -95 -21z"/>
<path d="M5039 8152 c-3 -53 -1 -152 4 -164 4 -11 23 -14 76 -13 l71 2 0 -239
0 -238 99 0 99 0 0 188 c0 103 1 210 1 238 l1 51 75 -2 74 -1 -1 97 0 96 -249
1 c-225 0 -249 -1 -250 -16z"/>
<path d="M5609 8153 c0 -10 -1 -160 -1 -333 l0 -315 98 -3 99 -3 0 243 0 243
30 1 c48 1 75 -16 75 -46 0 -31 -13 -44 -50 -53 -25 -6 -26 -8 -24 -94 1 -72
6 -99 29 -148 15 -33 36 -79 46 -102 l19 -43 106 0 c58 0 103 3 101 8 -25 47
-107 252 -107 267 0 5 8 15 19 22 10 6 29 32 41 57 31 64 29 132 -5 195 -52
95 -112 117 -327 120 -137 2 -148 1 -149 -16z"/>
<path d="M9118 8156 c-3 -9 -2 -583 1 -639 1 -16 11 -17 98 -15 l98 3 0 240 0
240 44 -1 c45 -1 61 -14 61 -50 0 -26 -22 -46 -52 -48 -23 -1 -23 -4 -22 -91
2 -94 -2 -83 80 -262 l15 -33 104 0 104 0 -55 131 c-29 72 -54 135 -54 139 0
4 12 20 26 36 66 74 74 180 19 261 -54 81 -115 100 -317 100 -101 1 -148 -3
-150 -11z"/>
<path d="M9656 8161 c-5 -8 -9 -86 -7 -147 l1 -40 75 1 75 1 0 -238 0 -238 99
0 98 0 1 223 c0 122 1 229 1 237 1 13 14 16 64 15 34 -1 67 0 74 3 8 2 12 33
11 97 l0 93 -244 0 c-134 0 -246 -3 -248 -7z"/>
<path d="M8079 7698 c0 -7 -2 -43 -4 -81 -4 -65 -22 -238 -31 -281 -2 -11 -7
-37 -10 -56 -3 -19 -19 -87 -34 -151 -127 -515 -409 -1078 -827 -1653 -52 -71
-92 -134 -89 -141 10 -26 350 -269 593 -424 131 -83 139 -84 213 -12 95 92
206 317 297 601 60 187 69 215 98 340 73 310 80 372 80 700 0 322 -10 424 -65
655 -46 194 -107 351 -182 468 -32 50 -38 55 -39 35z"/>
<path d="M5791 7125 c-4 -5 -16 -32 -26 -60 -46 -125 -171 -285 -298 -381 -69
-52 -181 -108 -242 -120 -22 -5 -43 -9 -47 -10 -5 -1 -75 -2 -157 -3 l-149 -1
-6 -37 c-3 -21 -8 -54 -11 -73 -5 -35 -29 -200 -40 -275 -4 -22 -8 -51 -10
-65 -2 -14 -16 -103 -30 -198 -15 -96 -24 -177 -20 -180 3 -3 143 -6 311 -6
l305 0 -5 -26 c-3 -14 -8 -45 -11 -70 -3 -25 -7 -55 -9 -67 -3 -11 -8 -43 -12
-70 -3 -26 -8 -57 -10 -68 -2 -11 -7 -40 -10 -65 -3 -25 -7 -52 -9 -60 -2 -8
-7 -37 -10 -65 -4 -27 -8 -57 -10 -65 -2 -8 -7 -35 -10 -60 -3 -25 -13 -85
-20 -135 -8 -49 -17 -108 -20 -130 -4 -22 -8 -51 -11 -65 -4 -24 -21 -129 -29
-180 -7 -48 -14 -95 -50 -340 -3 -19 -7 -42 -10 -50 -2 -8 -6 -37 -10 -65 -3
-27 -12 -88 -20 -135 -8 -47 -16 -103 -19 -125 -4 -22 -11 -73 -17 -113 -7
-40 -10 -75 -7 -78 3 -2 240 -6 526 -7 l522 -2 5 27 c4 15 8 42 10 60 3 18 7
44 9 58 5 23 11 65 20 137 8 56 17 119 26 173 5 30 12 73 15 95 3 23 7 50 9
60 2 11 7 43 10 70 4 28 11 75 16 105 5 30 12 78 15 105 3 28 8 62 11 77 3 15
7 40 9 57 2 16 8 56 14 88 5 32 13 83 16 113 3 30 8 62 10 70 2 8 7 35 10 60
3 25 12 86 20 135 8 50 17 110 20 135 3 25 12 86 20 135 8 50 16 106 19 125 3
19 14 98 26 175 11 77 23 154 25 170 2 17 11 73 19 125 22 139 25 161 66 445
6 39 15 95 20 125 5 30 12 78 15 105 3 28 10 75 15 105 5 30 12 75 15 100 3
25 8 52 10 60 2 8 6 35 9 60 3 25 8 57 11 73 l5 27 -147 0 c-82 0 -269 2 -416
3 -170 1 -271 -2 -276 -8z"/>
<path d="M1450 7107 c-3 -3 -43 -8 -90 -12 -47 -3 -96 -8 -110 -10 -14 -2 -61
-6 -105 -10 -44 -4 -93 -8 -110 -10 -16 -2 -61 -7 -100 -11 -38 -3 -83 -8
-100 -9 -16 -2 -66 -7 -111 -10 -44 -4 -103 -10 -132 -13 l-51 -7 504 -337
c347 -233 503 -332 500 -319 -2 11 -6 48 -10 83 -3 35 -8 74 -10 88 -2 14 -7
50 -10 80 -8 76 -16 140 -20 169 -3 14 -7 50 -10 80 -17 156 -31 252 -35 248z"/>
<path d="M457 6707 c-255 -496 -311 -617 -333 -722 -1 -5 -20 -91 -42 -190
-89 -395 -83 -339 -81 -659 0 -160 5 -320 10 -356 18 -131 21 -146 35 -220 14
-74 57 -237 73 -275 41 -99 101 -203 148 -254 30 -34 58 -61 61 -61 4 0 7 26
8 58 1 98 13 215 34 334 12 62 23 127 26 143 11 65 90 335 113 390 5 11 30 74
56 140 81 203 199 441 350 700 69 119 219 340 347 512 62 83 68 94 56 113 -28
46 -460 347 -663 463 -55 31 -102 57 -105 57 -3 0 -45 -78 -93 -173z"/>
<path d="M6865 5318 c2 -13 6 -45 10 -73 3 -27 8 -63 10 -80 6 -47 14 -115 21
-175 3 -30 7 -66 9 -80 3 -14 8 -52 11 -85 22 -199 28 -230 49 -229 26 0 186
16 205 19 8 2 58 6 110 10 52 4 97 8 100 10 3 2 46 6 95 10 50 3 101 8 115 10
14 2 57 6 95 10 108 10 159 16 163 19 1 2 -41 32 -95 68 -171 114 -865 567
-890 582 -8 4 -11 -1 -8 -16z"/>
<path d="M6615 4879 l-200 -166 -11 -74 c-7 -41 -15 -96 -18 -124 -4 -27 -9
-57 -11 -65 -2 -8 -6 -37 -10 -65 -3 -27 -10 -75 -15 -105 -5 -30 -12 -77 -15
-105 -4 -27 -8 -57 -10 -65 -2 -8 -7 -35 -10 -60 -6 -43 -31 -208 -40 -260 -2
-14 -7 -43 -9 -65 -3 -22 -7 -49 -10 -60 -2 -11 -6 -41 -10 -67 l-7 -46 -664
-1 -664 -1 1 47 c0 27 0 65 -1 85 l-1 37 -43 -24 c-35 -20 -125 -62 -332 -155
-276 -123 -828 -292 -1215 -370 -183 -38 -173 -36 -230 -45 -25 -4 -52 -9 -60
-10 -8 -1 -42 -6 -75 -11 -33 -4 -62 -8 -65 -9 -3 -1 -43 -5 -90 -9 -47 -5
-92 -10 -101 -11 -131 -25 -766 -25 -809 0 -3 1 -28 5 -57 9 -65 8 -258 44
-298 56 -16 5 -57 16 -90 24 -72 17 -275 76 -400 116 -109 34 -347 100 -364
100 -42 0 185 -227 348 -347 138 -102 204 -145 376 -243 255 -145 611 -287
880 -350 220 -52 250 -54 835 -54 450 0 619 4 700 18 14 3 59 10 100 16 187
30 387 84 840 225 118 37 222 68 230 70 8 2 50 13 92 24 43 12 79 21 80 21 2
0 4 26 6 58 7 171 92 324 219 396 39 22 130 57 163 62 8 2 29 5 45 8 79 15
179 19 396 18 l236 -1 69 33 c88 43 310 203 430 311 6 5 35 30 65 55 278 235
701 662 808 818 l24 34 -89 -6 c-49 -4 -120 -9 -159 -11 -109 -8 -202 -14
-295 -20 -47 -3 -113 -8 -147 -11 -60 -4 -63 -4 -64 18 -1 13 -3 32 -4 43 -2
11 -6 65 -10 119 -4 55 -8 108 -10 117 -2 10 -7 59 -11 110 -11 155 8 158
-219 -32z"/>
<path d="M5628 3179 c-10 -5 -18 -8 -18 -5 0 7 -69 -25 -105 -49 -48 -32 -114
-106 -142 -159 -41 -80 -52 -130 -49 -229 4 -103 24 -173 89 -300 31 -63 38
-86 34 -114 -5 -30 -36 -70 -56 -74 -39 -8 -70 -6 -99 6 -19 8 -36 15 -38 15
-2 0 -4 -81 -4 -181 l0 -180 34 -14 c44 -18 80 -25 141 -26 227 -3 418 181
430 414 4 92 -16 168 -82 302 -63 128 -65 161 -11 208 29 25 39 28 76 23 l42
-6 1 38 c1 51 1 206 0 268 -1 39 -5 54 -18 59 -28 12 -206 15 -225 4z"/>
<path d="M6437 3164 c-1 -1 -33 -4 -72 -7 -38 -3 -87 -11 -107 -17 -55 -16
-128 -69 -165 -121 -59 -83 -66 -135 -66 -494 0 -333 2 -354 45 -443 37 -75
132 -146 224 -168 16 -4 118 -9 227 -11 186 -5 197 -4 198 14 3 61 1 334 -3
338 -2 3 -75 6 -162 7 -172 3 -176 5 -176 65 0 55 24 63 182 63 l138 0 0 140
0 140 -122 0 c-160 0 -191 16 -174 85 8 33 45 42 183 42 67 1 125 3 130 6 9 6
10 344 1 353 -5 4 -276 12 -281 8z"/>
<path d="M6975 3162 c-33 -2 -62 -7 -65 -12 -3 -4 -5 -208 -4 -452 1 -390 3
-450 18 -503 25 -86 52 -132 105 -185 79 -79 170 -110 317 -110 72 0 74 1 75
25 1 33 1 300 0 323 -1 13 -11 18 -43 19 -45 3 -82 22 -98 53 -7 13 -11 159
-11 430 l-1 410 -31 0 c-18 1 -70 2 -117 3 -47 1 -112 1 -145 -1z"/>
<path d="M7613 3162 l-73 -3 1 -629 0 -630 180 0 c179 0 179 0 180 23 4 97 3
1179 -1 1205 l-5 34 -105 1 c-58 1 -138 1 -177 -1z"/>
<path d="M8213 3162 l-63 -3 0 -629 0 -630 180 0 180 0 1 33 c0 17 1 220 1
449 l1 418 116 -4 c110 -4 144 -10 201 -39 90 -44 134 -167 105 -292 -30 -133
-120 -191 -303 -197 l-62 -2 2 -186 3 -185 120 2 c99 1 133 6 198 27 216 72
359 236 407 466 47 228 -10 440 -155 585 -109 109 -241 165 -422 181 -76 7
-415 11 -510 6z"/>
<path d="M9500 3158 c-18 -7 -19 -31 -18 -632 l0 -626 182 0 181 0 -1 460 c-1
459 -1 460 20 461 43 2 91 -3 107 -12 19 -10 32 -53 24 -78 -6 -20 -45 -41
-75 -41 -22 0 -27 -46 -22 -226 l3 -112 66 -4 c70 -4 93 -20 93 -63 0 -38 -34
-58 -100 -59 -55 -1 -60 -3 -60 -23 -1 -29 -1 -268 0 -289 0 -15 12 -16 103
-12 56 3 121 11 144 18 89 27 188 130 215 223 6 23 11 80 11 127 1 71 -4 95
-26 143 -27 60 -73 111 -126 143 -36 21 -38 28 -13 46 61 44 103 142 104 238
1 194 -104 299 -317 316 -105 9 -474 10 -495 2z"/>
<path d="M10880 3159 c-149 -8 -215 -32 -285 -104 -52 -53 -79 -112 -92 -195
-12 -85 -7 -631 6 -690 17 -70 50 -127 100 -173 86 -78 165 -97 409 -97 l172
0 0 180 0 180 -62 0 c-35 1 -101 1 -148 2 -118 0 -132 7 -128 60 4 61 24 68
186 68 l132 0 0 140 0 140 -122 0 c-159 0 -191 16 -174 84 9 35 41 43 179 43
71 1 131 4 134 7 7 7 8 344 1 351 -8 8 -185 10 -308 4z"/>
</g>
</svg>
