<svg xmlns="http://www.w3.org/2000/svg" xmlns:xlink="http://www.w3.org/1999/xlink" width="100" zoomAndPan="magnify" viewBox="0 0 75 74.999997" height="100" preserveAspectRatio="xMidYMid meet" version="1.0"><defs><clipPath id="6791d7c488"><path d="M 11.25 0 L 63.75 0 L 63.75 75 L 11.25 75 Z M 11.25 0 " clip-rule="nonzero"/></clipPath></defs><g clip-path="url(#6791d7c488)"><path fill="#ffffff" d="M 37.5 0 C 23.007812 0 11.25 11.757812 11.25 26.25 C 11.25 45.9375 37.5 75 37.5 75 C 37.5 75 63.75 45.9375 63.75 26.25 C 63.75 11.757812 51.992188 0 37.5 0 Z M 37.5 35.625 C 32.324219 35.625 28.125 31.425781 28.125 26.25 C 28.125 21.074219 32.324219 16.875 37.5 16.875 C 42.675781 16.875 46.875 21.074219 46.875 26.25 C 46.875 31.425781 42.675781 35.625 37.5 35.625 Z M 37.5 35.625 " fill-opacity="1" fill-rule="nonzero"/></g></svg>